<?xml version="1.0" encoding="UTF-8" standalone="no"?>
<svg
   width="307.125pt"
   height="230.25pt"
   viewBox="0 0 460.6875 345.375"
   version="1.1"
   id="svg15077"
   sodipodi:docname="paramstudy_summary.svg"
   inkscape:version="1.2.2 (b0a8486541, 2022-12-01)"
   xmlns:inkscape="http://www.inkscape.org/namespaces/inkscape"
   xmlns:sodipodi="http://sodipodi.sourceforge.net/DTD/sodipodi-0.dtd"
   xmlns:xlink="http://www.w3.org/1999/xlink"
   xmlns="http://www.w3.org/2000/svg"
   xmlns:svg="http://www.w3.org/2000/svg"
   xmlns:rdf="http://www.w3.org/1999/02/22-rdf-syntax-ns#"
   xmlns:cc="http://creativecommons.org/ns#"
   xmlns:dc="http://purl.org/dc/elements/1.1/">
  <sodipodi:namedview
     id="namedview15079"
     pagecolor="#ffffff"
     bordercolor="#000000"
     borderopacity="0.25"
     inkscape:showpageshadow="2"
     inkscape:pageopacity="0.0"
     inkscape:pagecheckerboard="0"
     inkscape:deskcolor="#d1d1d1"
     inkscape:document-units="pt"
     showgrid="false"
     inkscape:zoom="1.7415852"
     inkscape:cx="306.9043"
     inkscape:cy="230.25"
     inkscape:window-width="1920"
     inkscape:window-height="1011"
     inkscape:window-x="0"
     inkscape:window-y="32"
     inkscape:window-maximized="1"
     inkscape:current-layer="axes_1" />
  <metadata
     id="metadata14365">
    <rdf:RDF>
      <cc:Work>
        <dc:type
           rdf:resource="http://purl.org/dc/dcmitype/StillImage" />
        <dc:date>2023-04-11T18:50:20.976848</dc:date>
        <dc:format>image/svg+xml</dc:format>
        <dc:creator>
          <cc:Agent>
            <dc:title>Matplotlib v3.5.2, https://matplotlib.org/</dc:title>
          </cc:Agent>
        </dc:creator>
      </cc:Work>
    </rdf:RDF>
  </metadata>
  <defs
     id="defs14369">
    <style
       type="text/css"
       id="style14367">*{stroke-linejoin: round; stroke-linecap: butt}</style>
  </defs>
  <g
     id="figure_1">
    <g
       id="axes_1">
      <g
         id="PathCollection_1">
        <defs
           id="defs14378">
          <path
             id="mb515984fa1"
             d="M 0 2.236068  C 0.593012 2.236068 1.161816 2.000462 1.581139 1.581139  C 2.000462 1.161816 2.236068 0.593012 2.236068 0  C 2.236068 -0.593012 2.000462 -1.161816 1.581139 -1.581139  C 1.161816 -2.000462 0.593012 -2.236068 0 -2.236068  C -0.593012 -2.236068 -1.161816 -2.000462 -1.581139 -1.581139  C -2.000462 -1.161816 -2.236068 -0.593012 -2.236068 0  C -2.236068 0.593012 -2.000462 1.161816 -1.581139 1.581139  C -1.161816 2.000462 -0.593012 2.236068 0 2.236068  z "
             style="stroke: #0073bd" />
        </defs>
        <g
           clip-path="url(#pd394c6fdaa)"
           id="g14390">
          <use
             xlink:href="#mb515984fa1"
             x="87.338672"
             y="245.089612"
             style="fill: #0073bd; stroke: #0073bd"
             id="use14380" />
          <use
             xlink:href="#mb515984fa1"
             x="161.720508"
             y="221.028487"
             style="fill: #0073bd; stroke: #0073bd"
             id="use14382" />
          <use
             xlink:href="#mb515984fa1"
             x="236.102344"
             y="170.500125"
             style="fill: #0073bd; stroke: #0073bd"
             id="use14384" />
          <use
             xlink:href="#mb515984fa1"
             x="310.48418"
             y="148.1889"
             style="fill: #0073bd; stroke: #0073bd"
             id="use14386" />
          <use
             xlink:href="#mb515984fa1"
             x="384.866016"
             y="115.597013"
             style="fill: #0073bd; stroke: #0073bd"
             id="use14388" />
        </g>
      </g>
      <g
         id="PathCollection_2">
        <path
           d="M 85.102604 275.105343  L 89.57474 275.105343  L 89.57474 270.633207  L 85.102604 270.633207  L 85.102604 275.105343  z "
           clip-path="url(#pd394c6fdaa)"
           style="fill: none; stroke: #0073bd"
           id="path14393" />
        <path
           d="M 159.48444 267.668268  L 163.956576 267.668268  L 163.956576 263.196132  L 159.48444 263.196132  L 159.48444 267.668268  z "
           clip-path="url(#pd394c6fdaa)"
           style="fill: none; stroke: #0073bd"
           id="path14395" />
        <path
           d="M 233.866276 263.07478  L 238.338412 263.07478  L 238.338412 258.602645  L 233.866276 258.602645  L 233.866276 263.07478  z "
           clip-path="url(#pd394c6fdaa)"
           style="fill: none; stroke: #0073bd"
           id="path14397" />
        <path
           d="M 308.248112 259.57498  L 312.720248 259.57498  L 312.720248 255.102845  L 308.248112 255.102845  L 308.248112 259.57498  z "
           clip-path="url(#pd394c6fdaa)"
           style="fill: none; stroke: #0073bd"
           id="path14399" />
        <path
           d="M 382.629948 256.293918  L 387.102084 256.293918  L 387.102084 251.821782  L 382.629948 251.821782  L 382.629948 256.293918  z "
           clip-path="url(#pd394c6fdaa)"
           style="fill: none; stroke: #0073bd"
           id="path14401" />
      </g>
      <g
         id="PathCollection_3">
        <defs
           id="defs14405">
          <path
             id="m90450de01b"
             d="M 0 2.236068  C 0.593012 2.236068 1.161816 2.000462 1.581139 1.581139  C 2.000462 1.161816 2.236068 0.593012 2.236068 0  C 2.236068 -0.593012 2.000462 -1.161816 1.581139 -1.581139  C 1.161816 -2.000462 0.593012 -2.236068 0 -2.236068  C -0.593012 -2.236068 -1.161816 -2.000462 -1.581139 -1.581139  C -2.000462 -1.161816 -2.236068 -0.593012 -2.236068 0  C -2.236068 0.593012 -2.000462 1.161816 -1.581139 1.581139  C -1.161816 2.000462 -0.593012 2.236068 0 2.236068  z "
             style="stroke: #d85319" />
        </defs>
        <g
           clip-path="url(#pd394c6fdaa)"
           id="g14417">
          <use
             xlink:href="#m90450de01b"
             x="87.338672"
             y="238.746225"
             style="fill: #d85319; stroke: #d85319"
             id="use14407" />
          <use
             xlink:href="#m90450de01b"
             x="161.720508"
             y="213.81015"
             style="fill: #d85319; stroke: #d85319"
             id="use14409" />
          <use
             xlink:href="#m90450de01b"
             x="236.102344"
             y="223.215863"
             style="fill: #d85319; stroke: #d85319"
             id="use14411" />
          <use
             xlink:href="#m90450de01b"
             x="310.48418"
             y="203.748225"
             style="fill: #d85319; stroke: #d85319"
             id="use14413" />
          <use
             xlink:href="#m90450de01b"
             x="384.866016"
             y="82.786387"
             style="fill: #d85319; stroke: #d85319"
             id="use14415" />
        </g>
      </g>
      <g
         id="PathCollection_4">
        <path
           d="M 85.102604 240.763555  L 89.57474 240.763555  L 89.57474 236.29142  L 85.102604 236.29142  L 85.102604 240.763555  z "
           clip-path="url(#pd394c6fdaa)"
           style="fill: none; stroke: #d85319"
           id="path14420" />
        <path
           d="M 159.48444 230.920368  L 163.956576 230.920368  L 163.956576 226.448232  L 159.48444 226.448232  L 159.48444 230.920368  z "
           clip-path="url(#pd394c6fdaa)"
           style="fill: none; stroke: #d85319"
           id="path14422" />
        <path
           d="M 233.866276 231.57658  L 238.338412 231.57658  L 238.338412 227.104445  L 233.866276 227.104445  L 233.866276 231.57658  z "
           clip-path="url(#pd394c6fdaa)"
           style="fill: none; stroke: #d85319"
           id="path14424" />
        <path
           d="M 308.248112 225.45193  L 312.720248 225.45193  L 312.720248 220.979795  L 308.248112 220.979795  L 308.248112 225.45193  z "
           clip-path="url(#pd394c6fdaa)"
           style="fill: none; stroke: #d85319"
           id="path14426" />
        <path
           d="M 382.629948 217.139905  L 387.102084 217.139905  L 387.102084 212.66777  L 382.629948 212.66777  L 382.629948 217.139905  z "
           clip-path="url(#pd394c6fdaa)"
           style="fill: none; stroke: #d85319"
           id="path14428" />
      </g>
      <g
         id="PathCollection_5">
        <defs
           id="defs14432">
          <path
             id="m4251d771b9"
             d="M 0 2.236068  C 0.593012 2.236068 1.161816 2.000462 1.581139 1.581139  C 2.000462 1.161816 2.236068 0.593012 2.236068 0  C 2.236068 -0.593012 2.000462 -1.161816 1.581139 -1.581139  C 1.161816 -2.000462 0.593012 -2.236068 0 -2.236068  C -0.593012 -2.236068 -1.161816 -2.000462 -1.581139 -1.581139  C -2.000462 -1.161816 -2.236068 -0.593012 -2.236068 0  C -2.236068 0.593012 -2.000462 1.161816 -1.581139 1.581139  C -1.161816 2.000462 -0.593012 2.236068 0 2.236068  z "
             style="stroke: #edb120" />
        </defs>
        <g
           clip-path="url(#pd394c6fdaa)"
           id="g14444">
          <use
             xlink:href="#m4251d771b9"
             x="87.338672"
             y="200.248425"
             style="fill: #edb120; stroke: #edb120"
             id="use14434" />
          <use
             xlink:href="#m4251d771b9"
             x="161.720508"
             y="158.6883"
             style="fill: #edb120; stroke: #edb120"
             id="use14436" />
          <use
             xlink:href="#m4251d771b9"
             x="236.102344"
             y="125.658937"
             style="fill: #edb120; stroke: #edb120"
             id="use14438" />
          <use
             xlink:href="#m4251d771b9"
             x="310.48418"
             y="95.254425"
             style="fill: #edb120; stroke: #edb120"
             id="use14440" />
          <use
             xlink:href="#m4251d771b9"
             x="384.866016"
             y="67.912237"
             style="fill: #edb120; stroke: #edb120"
             id="use14442" />
        </g>
      </g>
      <g
         id="PathCollection_6">
        <path
           d="M 85.102604 202.047018  L 89.57474 202.047018  L 89.57474 197.574882  L 85.102604 197.574882  L 85.102604 202.047018  z "
           clip-path="url(#pd394c6fdaa)"
           style="fill: none; stroke: #edb120"
           id="path14447" />
        <path
           d="M 159.48444 161.361843  L 163.956576 161.361843  L 163.956576 156.889707  L 159.48444 156.889707  L 159.48444 161.361843  z "
           clip-path="url(#pd394c6fdaa)"
           style="fill: none; stroke: #edb120"
           id="path14449" />
        <path
           d="M 233.866276 128.551218  L 238.338412 128.551218  L 238.338412 124.079082  L 233.866276 124.079082  L 233.866276 128.551218  z "
           clip-path="url(#pd394c6fdaa)"
           style="fill: none; stroke: #edb120"
           id="path14451" />
        <path
           d="M 308.248112 98.146705  L 312.720248 98.146705  L 312.720248 93.67457  L 308.248112 93.67457  L 308.248112 98.146705  z "
           clip-path="url(#pd394c6fdaa)"
           style="fill: none; stroke: #edb120"
           id="path14453" />
        <path
           d="M 382.629948 72.773155  L 387.102084 72.773155  L 387.102084 68.30102  L 382.629948 68.30102  L 382.629948 72.773155  z "
           clip-path="url(#pd394c6fdaa)"
           style="fill: none; stroke: #edb120"
           id="path14455" />
      </g>
      <g
         id="matplotlib.axis_1">
        <g
           id="xtick_1">
          <g
             id="line2d_1">
            <defs
               id="defs14459">
              <path
                 id="m325adeab0e"
                 d="M 0 0  L 0 -3.5  "
                 style="stroke: #000000; stroke-width: 0.8" />
            </defs>
            <g
               id="g14463">
              <use
                 xlink:href="#m325adeab0e"
                 x="87.338672"
                 y="303.93"
                 style="stroke: #000000; stroke-width: 0.8"
                 id="use14461" />
            </g>
          </g>
          <g
             id="text_1">
            <!-- $\mathdefault{50}$ -->
            <g
               transform="translate(79.838672 319.338594)scale(0.15 -0.15)"
               id="g14474">
              <defs
                 id="defs14468">
                <path
                   id="Cmr10-35"
                   d="M 556 728  Q 622 541 758 387  Q 894 234 1080 148  Q 1266 63 1466 63  Q 1928 63 2103 422  Q 2278 781 2278 1294  Q 2278 1516 2270 1667  Q 2263 1819 2228 1959  Q 2169 2184 2020 2353  Q 1872 2522 1656 2522  Q 1441 2522 1286 2456  Q 1131 2391 1034 2303  Q 938 2216 863 2119  Q 788 2022 769 2016  L 697 2016  Q 681 2016 657 2036  Q 634 2056 634 2075  L 634 4213  Q 634 4228 654 4245  Q 675 4263 697 4263  L 716 4263  Q 1147 4056 1631 4056  Q 2106 4056 2547 4263  L 2566 4263  Q 2588 4263 2606 4247  Q 2625 4231 2625 4213  L 2625 4153  Q 2625 4122 2613 4122  Q 2394 3831 2064 3668  Q 1734 3506 1381 3506  Q 1125 3506 856 3578  L 856 2369  Q 1069 2541 1236 2614  Q 1403 2688 1663 2688  Q 2016 2688 2295 2484  Q 2575 2281 2725 1954  Q 2875 1628 2875 1288  Q 2875 903 2686 575  Q 2497 247 2172 53  Q 1847 -141 1466 -141  Q 1150 -141 886 21  Q 622 184 470 459  Q 319 734 319 1044  Q 319 1188 412 1278  Q 506 1369 647 1369  Q 788 1369 883 1276  Q 978 1184 978 1044  Q 978 906 883 811  Q 788 716 647 716  Q 625 716 597 720  Q 569 725 556 728  z "
                   transform="scale(0.015625)" />
                <path
                   id="Cmr10-30"
                   d="M 1600 -141  Q 816 -141 533 504  Q 250 1150 250 2041  Q 250 2597 351 3087  Q 453 3578 754 3920  Q 1056 4263 1600 4263  Q 2022 4263 2290 4056  Q 2559 3850 2700 3523  Q 2841 3197 2892 2823  Q 2944 2450 2944 2041  Q 2944 1491 2842 1011  Q 2741 531 2444 195  Q 2147 -141 1600 -141  z M 1600 25  Q 1956 25 2131 390  Q 2306 756 2347 1200  Q 2388 1644 2388 2144  Q 2388 2625 2347 3031  Q 2306 3438 2132 3767  Q 1959 4097 1600 4097  Q 1238 4097 1063 3765  Q 888 3434 847 3029  Q 806 2625 806 2144  Q 806 1788 823 1472  Q 841 1156 916 820  Q 991 484 1158 254  Q 1325 25 1600 25  z "
                   transform="scale(0.015625)" />
              </defs>
              <use
                 xlink:href="#Cmr10-35"
                 transform="translate(0 0.390625)"
                 id="use14470" />
              <use
                 xlink:href="#Cmr10-30"
                 transform="translate(50 0.390625)"
                 id="use14472" />
            </g>
          </g>
        </g>
        <g
           id="xtick_2">
          <g
             id="line2d_2">
            <g
               id="g14480">
              <use
                 xlink:href="#m325adeab0e"
                 x="161.720508"
                 y="303.93"
                 style="stroke: #000000; stroke-width: 0.8"
                 id="use14478" />
            </g>
          </g>
          <g
             id="text_2">
            <!-- $\mathdefault{75}$ -->
            <g
               transform="translate(154.220508 319.338594)scale(0.15 -0.15)"
               id="g14490">
              <defs
                 id="defs14484">
                <path
                   id="Cmr10-37"
                   d="M 1113 166  Q 1113 522 1175 862  Q 1238 1203 1358 1536  Q 1478 1869 1648 2189  Q 1819 2509 2022 2791  L 2606 3603  L 1875 3603  Q 738 3603 703 3572  Q 619 3469 544 2981  L 359 2981  L 569 4325  L 756 4325  L 756 4306  Q 756 4191 1147 4156  Q 1538 4122 1913 4122  L 3103 4122  L 3103 3956  Q 3103 3950 3101 3947  Q 3100 3944 3097 3938  L 2216 2700  Q 1891 2219 1809 1631  Q 1728 1044 1728 166  Q 1728 41 1637 -50  Q 1547 -141 1422 -141  Q 1294 -141 1203 -50  Q 1113 41 1113 166  z "
                   transform="scale(0.015625)" />
              </defs>
              <use
                 xlink:href="#Cmr10-37"
                 transform="translate(0 0.421875)"
                 id="use14486" />
              <use
                 xlink:href="#Cmr10-35"
                 transform="translate(50 0.421875)"
                 id="use14488" />
            </g>
          </g>
        </g>
        <g
           id="xtick_3">
          <g
             id="line2d_3">
            <g
               id="g14496">
              <use
                 xlink:href="#m325adeab0e"
                 x="236.102344"
                 y="303.93"
                 style="stroke: #000000; stroke-width: 0.8"
                 id="use14494" />
            </g>
          </g>
          <g
             id="text_3">
            <!-- $\mathdefault{100}$ -->
            <g
               transform="translate(224.852344 319.338594)scale(0.15 -0.15)"
               id="g14508">
              <defs
                 id="defs14500">
                <path
                   id="Cmr10-31"
                   d="M 594 0  L 594 225  Q 1394 225 1394 428  L 1394 3788  Q 1063 3628 556 3628  L 556 3853  Q 1341 3853 1741 4263  L 1831 4263  Q 1853 4263 1873 4245  Q 1894 4228 1894 4206  L 1894 428  Q 1894 225 2694 225  L 2694 0  L 594 0  z "
                   transform="scale(0.015625)" />
              </defs>
              <use
                 xlink:href="#Cmr10-31"
                 transform="translate(0 0.390625)"
                 id="use14502" />
              <use
                 xlink:href="#Cmr10-30"
                 transform="translate(50 0.390625)"
                 id="use14504" />
              <use
                 xlink:href="#Cmr10-30"
                 transform="translate(100 0.390625)"
                 id="use14506" />
            </g>
          </g>
        </g>
        <g
           id="xtick_4">
          <g
             id="line2d_4">
            <g
               id="g14514">
              <use
                 xlink:href="#m325adeab0e"
                 x="310.48418"
                 y="303.93"
                 style="stroke: #000000; stroke-width: 0.8"
                 id="use14512" />
            </g>
          </g>
          <g
             id="text_4">
            <!-- $\mathdefault{125}$ -->
            <g
               transform="translate(299.23418 319.338594)scale(0.15 -0.15)"
               id="g14526">
              <defs
                 id="defs14518">
                <path
                   id="Cmr10-32"
                   d="M 319 0  L 319 172  Q 319 188 331 206  L 1325 1306  Q 1550 1550 1690 1715  Q 1831 1881 1968 2097  Q 2106 2313 2186 2536  Q 2266 2759 2266 3009  Q 2266 3272 2169 3511  Q 2072 3750 1880 3894  Q 1688 4038 1416 4038  Q 1138 4038 916 3870  Q 694 3703 603 3438  Q 628 3444 672 3444  Q 816 3444 917 3347  Q 1019 3250 1019 3097  Q 1019 2950 917 2848  Q 816 2747 672 2747  Q 522 2747 420 2851  Q 319 2956 319 3097  Q 319 3338 409 3548  Q 500 3759 670 3923  Q 841 4088 1055 4175  Q 1269 4263 1509 4263  Q 1875 4263 2190 4108  Q 2506 3953 2690 3670  Q 2875 3388 2875 3009  Q 2875 2731 2753 2481  Q 2631 2231 2440 2026  Q 2250 1822 1953 1562  Q 1656 1303 1563 1216  L 838 519  L 1453 519  Q 1906 519 2211 526  Q 2516 534 2534 550  Q 2609 631 2688 1141  L 2875 1141  L 2694 0  L 319 0  z "
                   transform="scale(0.015625)" />
              </defs>
              <use
                 xlink:href="#Cmr10-31"
                 transform="translate(0 0.390625)"
                 id="use14520" />
              <use
                 xlink:href="#Cmr10-32"
                 transform="translate(50 0.390625)"
                 id="use14522" />
              <use
                 xlink:href="#Cmr10-35"
                 transform="translate(100 0.390625)"
                 id="use14524" />
            </g>
          </g>
        </g>
        <g
           id="xtick_5">
          <g
             id="line2d_5">
            <g
               id="g14532">
              <use
                 xlink:href="#m325adeab0e"
                 x="384.866016"
                 y="303.93"
                 style="stroke: #000000; stroke-width: 0.8"
                 id="use14530" />
            </g>
          </g>
          <g
             id="text_5">
            <!-- $\mathdefault{150}$ -->
            <g
               transform="translate(373.616016 319.338594)scale(0.15 -0.15)"
               id="g14541">
              <use
                 xlink:href="#Cmr10-31"
                 transform="translate(0 0.390625)"
                 id="use14535" />
              <use
                 xlink:href="#Cmr10-35"
                 transform="translate(50 0.390625)"
                 id="use14537" />
              <use
                 xlink:href="#Cmr10-30"
                 transform="translate(100 0.390625)"
                 id="use14539" />
            </g>
          </g>
        </g>
        <g
           id="text_6">
          <!-- Dust mass / $M_\oplus$ -->
          <g
             transform="translate(179.477344 338.497187)scale(0.15 -0.15)"
             id="g14585">
            <defs
               id="defs14555">
              <path
                 id="Cmr10-44"
                 d="M 213 0  L 213 225  Q 872 225 872 428  L 872 3944  Q 872 4147 213 4147  L 213 4372  L 2572 4372  Q 3009 4372 3371 4183  Q 3734 3994 3990 3678  Q 4247 3363 4386 2963  Q 4525 2563 4525 2144  Q 4525 1738 4384 1355  Q 4244 972 3980 664  Q 3716 356 3355 178  Q 2994 0 2572 0  L 213 0  z M 1447 428  Q 1447 291 1525 258  Q 1603 225 1772 225  L 2406 225  Q 2734 225 3029 367  Q 3325 509 3519 763  Q 3722 1031 3790 1364  Q 3859 1697 3859 2144  Q 3859 2609 3790 2959  Q 3722 3309 3519 3584  Q 3328 3856 3034 4001  Q 2741 4147 2406 4147  L 1772 4147  Q 1656 4147 1592 4137  Q 1528 4128 1487 4083  Q 1447 4038 1447 3944  L 1447 428  z "
                 transform="scale(0.015625)" />
              <path
                 id="Cmr10-75"
                 d="M 691 763  L 691 2175  Q 691 2347 639 2423  Q 588 2500 491 2517  Q 394 2534 191 2534  L 191 2759  L 1159 2828  L 1159 763  Q 1159 513 1195 373  Q 1231 234 1348 165  Q 1466 97 1722 97  Q 2066 97 2269 384  Q 2472 672 2472 1038  L 2472 2175  Q 2472 2347 2419 2423  Q 2366 2500 2270 2517  Q 2175 2534 1972 2534  L 1972 2759  L 2938 2828  L 2938 581  Q 2938 413 2989 336  Q 3041 259 3137 242  Q 3234 225 3438 225  L 3438 0  L 2491 -72  L 2491 469  Q 2372 228 2159 78  Q 1947 -72 1691 -72  Q 1231 -72 961 123  Q 691 319 691 763  z "
                 transform="scale(0.015625)" />
              <path
                 id="Cmr10-73"
                 d="M 213 -19  L 213 1025  Q 213 1075 269 1075  L 347 1075  Q 384 1075 397 1025  Q 575 97 1259 97  Q 1563 97 1767 234  Q 1972 372 1972 659  Q 1972 866 1812 1011  Q 1653 1156 1434 1209  L 1006 1294  Q 791 1341 614 1437  Q 438 1534 325 1695  Q 213 1856 213 2069  Q 213 2350 361 2529  Q 509 2709 746 2789  Q 984 2869 1259 2869  Q 1588 2869 1831 2694  L 2016 2853  Q 2016 2869 2047 2869  L 2094 2869  Q 2113 2869 2128 2851  Q 2144 2834 2144 2816  L 2144 1978  Q 2144 1919 2094 1919  L 2016 1919  Q 1959 1919 1959 1978  Q 1959 2313 1773 2516  Q 1588 2719 1253 2719  Q 966 2719 755 2612  Q 544 2506 544 2247  Q 544 2069 695 1955  Q 847 1841 1050 1791  L 1484 1709  Q 1703 1659 1892 1540  Q 2081 1422 2192 1240  Q 2303 1059 2303 831  Q 2303 600 2223 429  Q 2144 259 2001 146  Q 1859 34 1665 -19  Q 1472 -72 1259 -72  Q 859 -72 575 197  L 341 -56  Q 341 -72 306 -72  L 269 -72  Q 213 -72 213 -19  z "
                 transform="scale(0.015625)" />
              <path
                 id="Cmr10-74"
                 d="M 653 769  L 653 2534  L 122 2534  L 122 2700  Q 541 2700 737 3090  Q 934 3481 934 3938  L 1119 3938  L 1119 2759  L 2022 2759  L 2022 2534  L 1119 2534  L 1119 781  Q 1119 516 1208 316  Q 1297 116 1528 116  Q 1747 116 1844 327  Q 1941 538 1941 781  L 1941 1159  L 2125 1159  L 2125 769  Q 2125 569 2051 373  Q 1978 178 1834 53  Q 1691 -72 1484 -72  Q 1100 -72 876 158  Q 653 388 653 769  z "
                 transform="scale(0.015625)" />
              <path
                 id="Cmr10-20"
                 transform="scale(0.015625)" />
              <path
                 id="Cmr10-6d"
                 d="M 191 0  L 191 225  Q 409 225 550 259  Q 691 294 691 428  L 691 2175  Q 691 2347 639 2423  Q 588 2500 491 2517  Q 394 2534 191 2534  L 191 2759  L 1119 2828  L 1119 2203  Q 1247 2478 1498 2653  Q 1750 2828 2047 2828  Q 2784 2828 2913 2228  Q 3041 2497 3287 2662  Q 3534 2828 3828 2828  Q 4119 2828 4317 2734  Q 4516 2641 4616 2448  Q 4716 2256 4716 1966  L 4716 428  Q 4716 294 4858 259  Q 5000 225 5216 225  L 5216 0  L 3750 0  L 3750 225  Q 3969 225 4109 259  Q 4250 294 4250 428  L 4250 1947  Q 4250 2269 4159 2466  Q 4069 2663 3788 2663  Q 3419 2663 3178 2366  Q 2938 2069 2938 1691  L 2938 428  Q 2938 294 3078 259  Q 3219 225 3438 225  L 3438 0  L 1972 0  L 1972 225  Q 2191 225 2331 259  Q 2472 294 2472 428  L 2472 1947  Q 2472 2259 2381 2461  Q 2291 2663 2009 2663  Q 1638 2663 1398 2366  Q 1159 2069 1159 1691  L 1159 428  Q 1159 294 1300 259  Q 1441 225 1656 225  L 1656 0  L 191 0  z "
                 transform="scale(0.015625)" />
              <path
                 id="Cmr10-61"
                 d="M 256 628  Q 256 1009 556 1248  Q 856 1488 1276 1586  Q 1697 1684 2075 1684  L 2075 1947  Q 2075 2131 1994 2304  Q 1913 2478 1759 2589  Q 1606 2700 1422 2700  Q 997 2700 775 2509  Q 897 2509 976 2417  Q 1056 2325 1056 2203  Q 1056 2075 965 1984  Q 875 1894 750 1894  Q 622 1894 531 1984  Q 441 2075 441 2203  Q 441 2541 747 2705  Q 1053 2869 1422 2869  Q 1681 2869 1943 2758  Q 2206 2647 2373 2440  Q 2541 2234 2541 1959  L 2541 519  Q 2541 394 2594 289  Q 2647 184 2759 184  Q 2866 184 2917 290  Q 2969 397 2969 519  L 2969 928  L 3156 928  L 3156 519  Q 3156 375 3081 245  Q 3006 116 2879 39  Q 2753 -38 2606 -38  Q 2419 -38 2283 107  Q 2147 253 2131 453  Q 2013 213 1781 70  Q 1550 -72 1288 -72  Q 1044 -72 808 0  Q 572 72 414 226  Q 256 381 256 628  z M 775 628  Q 775 403 940 250  Q 1106 97 1331 97  Q 1538 97 1706 200  Q 1875 303 1975 481  Q 2075 659 2075 856  L 2075 1522  Q 1784 1522 1479 1426  Q 1175 1331 975 1128  Q 775 925 775 628  z "
                 transform="scale(0.015625)" />
              <path
                 id="Cmr10-2f"
                 d="M 359 -1472  Q 359 -1453 366 -1447  L 2591 4722  Q 2603 4759 2634 4779  Q 2666 4800 2706 4800  Q 2763 4800 2798 4765  Q 2834 4731 2834 4672  L 2834 4647  L 609 -1522  Q 572 -1600 488 -1600  Q 434 -1600 396 -1562  Q 359 -1525 359 -1472  z "
                 transform="scale(0.015625)" />
              <path
                 id="Cmmi10-4d"
                 d="M 325 0  Q 263 0 263 84  Q 266 100 275 137  Q 284 175 300 200  Q 316 225 347 225  Q 956 225 1056 616  L 1888 3956  Q 1900 4019 1900 4044  Q 1900 4113 1825 4122  Q 1703 4147 1363 4147  Q 1300 4147 1300 4231  Q 1303 4247 1312 4286  Q 1322 4325 1339 4348  Q 1356 4372 1381 4372  L 2509 4372  Q 2581 4372 2591 4300  L 3091 634  L 5422 4300  Q 5466 4372 5544 4372  L 6631 4372  Q 6694 4372 6694 4288  Q 6691 4272 6681 4233  Q 6672 4194 6655 4170  Q 6638 4147 6613 4147  Q 6222 4147 6069 4103  Q 5984 4075 5947 3928  L 5069 416  Q 5056 353 5056 325  Q 5056 300 5064 283  Q 5072 266 5086 261  Q 5100 256 5131 250  Q 5253 225 5594 225  Q 5656 225 5656 141  Q 5634 50 5621 25  Q 5609 0 5550 0  L 3878 0  Q 3816 0 3816 84  Q 3819 100 3828 139  Q 3838 178 3855 201  Q 3872 225 3897 225  Q 4288 225 4441 269  Q 4525 297 4563 441  L 5484 4147  L 2900 72  Q 2863 0 2772 0  Q 2691 0 2681 72  L 2138 4097  L 1259 588  Q 1253 572 1250 548  Q 1247 525 1241 494  Q 1241 328 1386 276  Q 1531 225 1741 225  Q 1806 225 1806 141  Q 1784 56 1770 28  Q 1756 0 1697 0  L 325 0  z "
                 transform="scale(0.015625)" />
              <path
                 id="Cmsy10-a9"
                 d="M 2491 -531  Q 2053 -531 1668 -365  Q 1284 -200 986 95  Q 688 391 523 780  Q 359 1169 359 1600  Q 359 2038 521 2422  Q 684 2806 984 3106  Q 1284 3406 1668 3568  Q 2053 3731 2491 3731  Q 2925 3731 3312 3565  Q 3700 3400 3994 3104  Q 4288 2809 4452 2421  Q 4616 2034 4616 1600  Q 4616 1172 4450 780  Q 4284 388 3992 95  Q 3700 -197 3312 -364  Q 2925 -531 2491 -531  z M 2394 -347  L 2394 1509  L 544 1509  Q 544 1047 806 617  Q 1069 188 1500 -79  Q 1931 -347 2394 -347  z M 2578 -347  Q 2928 -347 3259 -195  Q 3591 -44 3859 228  Q 4128 500 4278 831  Q 4428 1163 4428 1509  L 2578 1509  L 2578 -347  z M 544 1697  L 2394 1697  L 2394 3547  Q 1931 3547 1501 3283  Q 1072 3019 808 2589  Q 544 2159 544 1697  z M 2578 1697  L 4428 1697  Q 4428 2047 4279 2376  Q 4131 2706 3859 2978  Q 3588 3250 3258 3398  Q 2928 3547 2578 3547  L 2578 1697  z "
                 transform="scale(0.015625)" />
            </defs>
            <use
               xlink:href="#Cmr10-44"
               id="use14557" />
            <use
               xlink:href="#Cmr10-75"
               transform="translate(76.318359 0)"
               id="use14559" />
            <use
               xlink:href="#Cmr10-73"
               transform="translate(131.835938 0)"
               id="use14561" />
            <use
               xlink:href="#Cmr10-74"
               transform="translate(171.240234 0)"
               id="use14563" />
            <use
               xlink:href="#Cmr10-20"
               transform="translate(210.058594 0)"
               id="use14565" />
            <use
               xlink:href="#Cmr10-6d"
               transform="translate(243.359375 0)"
               id="use14567" />
            <use
               xlink:href="#Cmr10-61"
               transform="translate(326.660156 0)"
               id="use14569" />
            <use
               xlink:href="#Cmr10-73"
               transform="translate(376.660156 0)"
               id="use14571" />
            <use
               xlink:href="#Cmr10-73"
               transform="translate(416.064453 0)"
               id="use14573" />
            <use
               xlink:href="#Cmr10-20"
               transform="translate(455.46875 0)"
               id="use14575" />
            <use
               xlink:href="#Cmr10-2f"
               transform="translate(488.769531 0)"
               id="use14577" />
            <use
               xlink:href="#Cmr10-20"
               transform="translate(538.769531 0)"
               id="use14579" />
            <use
               xlink:href="#Cmmi10-4d"
               transform="translate(572.070312 0)"
               id="use14581" />
            <use
               xlink:href="#Cmsy10-a9"
               transform="translate(681.382812 -17.00625)scale(0.7)"
               id="use14583" />
          </g>
        </g>
      </g>
      <g
         id="matplotlib.axis_2">
        <g
           id="ytick_1">
          <g
             id="line2d_6">
            <defs
               id="defs14590">
              <path
                 id="m129f56e515"
                 d="M 0 0  L 3.5 0  "
                 style="stroke: #000000; stroke-width: 0.8" />
            </defs>
            <g
               id="g14594">
              <use
                 xlink:href="#m129f56e515"
                 x="57.585938"
                 y="303.93"
                 style="stroke: #000000; stroke-width: 0.8"
                 id="use14592" />
            </g>
          </g>
          <g
             id="line2d_7">
            <defs
               id="defs14598">
              <path
                 id="maa0e7483bd"
                 d="M 0 0  L -3.5 0  "
                 style="stroke: #000000; stroke-width: 0.8" />
            </defs>
            <g
               id="g14602">
              <use
                 xlink:href="#maa0e7483bd"
                 x="414.61875"
                 y="303.93"
                 style="stroke: #000000; stroke-width: 0.8"
                 id="use14600" />
            </g>
          </g>
          <g
             id="text_7">
            <!-- $\mathdefault{0}$ -->
            <g
               transform="translate(45.085938 307.68)scale(0.15 -0.15)"
               id="g14607">
              <use
                 xlink:href="#Cmr10-30"
                 transform="translate(0 0.390625)"
                 id="use14605" />
            </g>
          </g>
        </g>
        <g
           id="ytick_2">
          <g
             id="line2d_8">
            <g
               id="g14613">
              <use
                 xlink:href="#m129f56e515"
                 x="57.585938"
                 y="260.1825"
                 style="stroke: #000000; stroke-width: 0.8"
                 id="use14611" />
            </g>
          </g>
          <g
             id="line2d_9">
            <g
               id="g14618">
              <use
                 xlink:href="#maa0e7483bd"
                 x="414.61875"
                 y="260.1825"
                 style="stroke: #000000; stroke-width: 0.8"
                 id="use14616" />
            </g>
          </g>
          <g
             id="text_8">
            <!-- $\mathdefault{20}$ -->
            <g
               transform="translate(37.585938 263.9325)scale(0.15 -0.15)"
               id="g14625">
              <use
                 xlink:href="#Cmr10-32"
                 transform="translate(0 0.390625)"
                 id="use14621" />
              <use
                 xlink:href="#Cmr10-30"
                 transform="translate(50 0.390625)"
                 id="use14623" />
            </g>
          </g>
        </g>
        <g
           id="ytick_3">
          <g
             id="line2d_10">
            <g
               id="g14631">
              <use
                 xlink:href="#m129f56e515"
                 x="57.585938"
                 y="216.435"
                 style="stroke: #000000; stroke-width: 0.8"
                 id="use14629" />
            </g>
          </g>
          <g
             id="line2d_11">
            <g
               id="g14636">
              <use
                 xlink:href="#maa0e7483bd"
                 x="414.61875"
                 y="216.435"
                 style="stroke: #000000; stroke-width: 0.8"
                 id="use14634" />
            </g>
          </g>
          <g
             id="text_9">
            <!-- $\mathdefault{40}$ -->
            <g
               transform="translate(37.585938 220.185)scale(0.15 -0.15)"
               id="g14646">
              <defs
                 id="defs14640">
                <path
                   id="Cmr10-34"
                   d="M 178 1056  L 178 1281  L 2156 4231  Q 2178 4263 2222 4263  L 2316 4263  Q 2388 4263 2388 4191  L 2388 1281  L 3016 1281  L 3016 1056  L 2388 1056  L 2388 428  Q 2388 297 2575 261  Q 2763 225 3009 225  L 3009 0  L 1247 0  L 1247 225  Q 1494 225 1681 261  Q 1869 297 1869 428  L 1869 1056  L 178 1056  z M 391 1281  L 1906 1281  L 1906 3547  L 391 1281  z "
                   transform="scale(0.015625)" />
              </defs>
              <use
                 xlink:href="#Cmr10-34"
                 transform="translate(0 0.390625)"
                 id="use14642" />
              <use
                 xlink:href="#Cmr10-30"
                 transform="translate(50 0.390625)"
                 id="use14644" />
            </g>
          </g>
        </g>
        <g
           id="ytick_4">
          <g
             id="line2d_12">
            <g
               id="g14652">
              <use
                 xlink:href="#m129f56e515"
                 x="57.585938"
                 y="172.6875"
                 style="stroke: #000000; stroke-width: 0.8"
                 id="use14650" />
            </g>
          </g>
          <g
             id="line2d_13">
            <g
               id="g14657">
              <use
                 xlink:href="#maa0e7483bd"
                 x="414.61875"
                 y="172.6875"
                 style="stroke: #000000; stroke-width: 0.8"
                 id="use14655" />
            </g>
          </g>
          <g
             id="text_10">
            <!-- $\mathdefault{60}$ -->
            <g
               transform="translate(37.585938 176.4375)scale(0.15 -0.15)"
               id="g14667">
              <defs
                 id="defs14661">
                <path
                   id="Cmr10-36"
                   d="M 1600 -141  Q 1203 -141 937 70  Q 672 281 526 617  Q 381 953 325 1322  Q 269 1691 269 2069  Q 269 2575 466 3084  Q 663 3594 1045 3928  Q 1428 4263 1953 4263  Q 2172 4263 2361 4180  Q 2550 4097 2658 3936  Q 2766 3775 2766 3547  Q 2766 3416 2677 3327  Q 2588 3238 2456 3238  Q 2331 3238 2240 3328  Q 2150 3419 2150 3547  Q 2150 3672 2240 3762  Q 2331 3853 2456 3853  L 2491 3853  Q 2409 3969 2261 4023  Q 2113 4078 1953 4078  Q 1759 4078 1595 3993  Q 1431 3909 1300 3765  Q 1169 3622 1081 3448  Q 994 3275 945 3053  Q 897 2831 884 2637  Q 872 2444 872 2150  Q 984 2413 1190 2580  Q 1397 2747 1656 2747  Q 1941 2747 2175 2631  Q 2409 2516 2578 2311  Q 2747 2106 2836 1843  Q 2925 1581 2925 1313  Q 2925 938 2758 598  Q 2591 259 2287 59  Q 1984 -141 1600 -141  z M 1600 63  Q 1847 63 1997 175  Q 2147 288 2217 473  Q 2288 659 2305 848  Q 2322 1038 2322 1313  Q 2322 1675 2287 1931  Q 2253 2188 2100 2383  Q 1947 2578 1631 2578  Q 1372 2578 1205 2403  Q 1038 2228 961 1961  Q 884 1694 884 1447  Q 884 1363 891 1319  Q 891 1309 889 1303  Q 888 1297 884 1288  Q 884 1013 940 731  Q 997 450 1156 256  Q 1316 63 1600 63  z "
                   transform="scale(0.015625)" />
              </defs>
              <use
                 xlink:href="#Cmr10-36"
                 transform="translate(0 0.390625)"
                 id="use14663" />
              <use
                 xlink:href="#Cmr10-30"
                 transform="translate(50 0.390625)"
                 id="use14665" />
            </g>
          </g>
        </g>
        <g
           id="ytick_5">
          <g
             id="line2d_14">
            <g
               id="g14673">
              <use
                 xlink:href="#m129f56e515"
                 x="57.585938"
                 y="128.94"
                 style="stroke: #000000; stroke-width: 0.8"
                 id="use14671" />
            </g>
          </g>
          <g
             id="line2d_15">
            <g
               id="g14678">
              <use
                 xlink:href="#maa0e7483bd"
                 x="414.61875"
                 y="128.94"
                 style="stroke: #000000; stroke-width: 0.8"
                 id="use14676" />
            </g>
          </g>
          <g
             id="text_11">
            <!-- $\mathdefault{80}$ -->
            <g
               transform="translate(37.585938 132.69)scale(0.15 -0.15)"
               id="g14688">
              <defs
                 id="defs14682">
                <path
                   id="Cmr10-38"
                   d="M 269 972  Q 269 1356 522 1651  Q 775 1947 1172 2144  L 934 2297  Q 716 2441 578 2680  Q 441 2919 441 3181  Q 441 3488 602 3734  Q 763 3981 1030 4122  Q 1297 4263 1600 4263  Q 1884 4263 2148 4147  Q 2413 4031 2583 3815  Q 2753 3600 2753 3303  Q 2753 3088 2651 2903  Q 2550 2719 2373 2572  Q 2197 2425 1997 2322  L 2363 2088  Q 2616 1922 2770 1653  Q 2925 1384 2925 1088  Q 2925 741 2739 456  Q 2553 172 2247 15  Q 1941 -141 1600 -141  Q 1269 -141 961 -6  Q 653 128 461 383  Q 269 638 269 972  z M 616 972  Q 616 719 755 509  Q 894 300 1122 181  Q 1350 63 1600 63  Q 1972 63 2275 280  Q 2578 497 2578 856  Q 2578 978 2529 1098  Q 2481 1219 2395 1317  Q 2309 1416 2203 1478  L 1344 2034  Q 1144 1928 976 1765  Q 809 1603 712 1400  Q 616 1197 616 972  z M 1056 2925  L 1831 2425  Q 2100 2581 2272 2803  Q 2444 3025 2444 3303  Q 2444 3519 2323 3698  Q 2203 3878 2009 3978  Q 1816 4078 1594 4078  Q 1400 4078 1203 4003  Q 1006 3928 878 3779  Q 750 3631 750 3431  Q 750 3131 1056 2925  z "
                   transform="scale(0.015625)" />
              </defs>
              <use
                 xlink:href="#Cmr10-38"
                 transform="translate(0 0.390625)"
                 id="use14684" />
              <use
                 xlink:href="#Cmr10-30"
                 transform="translate(50 0.390625)"
                 id="use14686" />
            </g>
          </g>
        </g>
        <g
           id="ytick_6">
          <g
             id="line2d_16">
            <g
               id="g14694">
              <use
                 xlink:href="#m129f56e515"
                 x="57.585938"
                 y="85.1925"
                 style="stroke: #000000; stroke-width: 0.8"
                 id="use14692" />
            </g>
          </g>
          <g
             id="line2d_17">
            <g
               id="g14699">
              <use
                 xlink:href="#maa0e7483bd"
                 x="414.61875"
                 y="85.1925"
                 style="stroke: #000000; stroke-width: 0.8"
                 id="use14697" />
            </g>
          </g>
          <g
             id="text_12">
            <!-- $\mathdefault{100}$ -->
            <g
               transform="translate(30.085938 88.9425)scale(0.15 -0.15)"
               id="g14708">
              <use
                 xlink:href="#Cmr10-31"
                 transform="translate(0 0.390625)"
                 id="use14702" />
              <use
                 xlink:href="#Cmr10-30"
                 transform="translate(50 0.390625)"
                 id="use14704" />
              <use
                 xlink:href="#Cmr10-30"
                 transform="translate(100 0.390625)"
                 id="use14706" />
            </g>
          </g>
        </g>
        <g
           id="ytick_7">
          <g
             id="line2d_18">
            <g
               id="g14714">
              <use
                 xlink:href="#m129f56e515"
                 x="57.585938"
                 y="41.445"
                 style="stroke: #000000; stroke-width: 0.8"
                 id="use14712" />
            </g>
          </g>
          <g
             id="line2d_19">
            <g
               id="g14719">
              <use
                 xlink:href="#maa0e7483bd"
                 x="414.61875"
                 y="41.445"
                 style="stroke: #000000; stroke-width: 0.8"
                 id="use14717" />
            </g>
          </g>
          <g
             id="text_13">
            <!-- $\mathdefault{120}$ -->
            <g
               transform="translate(30.085938 45.195)scale(0.15 -0.15)"
               id="g14728">
              <use
                 xlink:href="#Cmr10-31"
                 transform="translate(0 0.390625)"
                 id="use14722" />
              <use
                 xlink:href="#Cmr10-32"
                 transform="translate(50 0.390625)"
                 id="use14724" />
              <use
                 xlink:href="#Cmr10-30"
                 transform="translate(100 0.390625)"
                 id="use14726" />
            </g>
          </g>
        </g>
        <g
           id="text_14">
          <!-- Final planet mass / $M_\oplus$ -->
          <g
             transform="translate(21.335937 253.3875)rotate(-90)scale(0.15 -0.15)"
             id="g14784">
            <defs
               id="defs14738">
              <path
                 id="Cmr10-46"
                 d="M 197 0  L 197 225  Q 856 225 856 428  L 856 3944  Q 856 4147 197 4147  L 197 4372  L 3725 4372  L 3903 2906  L 3719 2906  Q 3675 3309 3601 3542  Q 3528 3775 3387 3908  Q 3247 4041 3011 4094  Q 2775 4147 2363 4147  L 1778 4147  Q 1663 4147 1598 4137  Q 1534 4128 1493 4083  Q 1453 4038 1453 3944  L 1453 2297  L 1906 2297  Q 2234 2297 2387 2355  Q 2541 2413 2598 2566  Q 2656 2719 2656 3047  L 2841 3047  L 2841 1325  L 2656 1325  Q 2656 1653 2598 1806  Q 2541 1959 2387 2017  Q 2234 2075 1906 2075  L 1453 2075  L 1453 428  Q 1453 225 2272 225  L 2272 0  L 197 0  z "
                 transform="scale(0.015625)" />
              <path
                 id="Cmr10-69"
                 d="M 197 0  L 197 225  Q 416 225 556 259  Q 697 294 697 428  L 697 2175  Q 697 2422 601 2478  Q 506 2534 225 2534  L 225 2759  L 1147 2828  L 1147 428  Q 1147 294 1269 259  Q 1391 225 1594 225  L 1594 0  L 197 0  z M 469 3928  Q 469 4069 575 4175  Q 681 4281 819 4281  Q 909 4281 993 4234  Q 1078 4188 1125 4103  Q 1172 4019 1172 3928  Q 1172 3791 1065 3684  Q 959 3578 819 3578  Q 681 3578 575 3684  Q 469 3791 469 3928  z "
                 transform="scale(0.015625)" />
              <path
                 id="Cmr10-6e"
                 d="M 191 0  L 191 225  Q 409 225 550 259  Q 691 294 691 428  L 691 2175  Q 691 2347 639 2423  Q 588 2500 491 2517  Q 394 2534 191 2534  L 191 2759  L 1119 2828  L 1119 2203  Q 1247 2478 1498 2653  Q 1750 2828 2047 2828  Q 2491 2828 2714 2615  Q 2938 2403 2938 1966  L 2938 428  Q 2938 294 3078 259  Q 3219 225 3438 225  L 3438 0  L 1972 0  L 1972 225  Q 2191 225 2331 259  Q 2472 294 2472 428  L 2472 1947  Q 2472 2259 2381 2461  Q 2291 2663 2009 2663  Q 1638 2663 1398 2366  Q 1159 2069 1159 1691  L 1159 428  Q 1159 294 1300 259  Q 1441 225 1656 225  L 1656 0  L 191 0  z "
                 transform="scale(0.015625)" />
              <path
                 id="Cmr10-6c"
                 d="M 197 0  L 197 225  Q 416 225 556 259  Q 697 294 697 428  L 697 3788  Q 697 3959 645 4036  Q 594 4113 497 4130  Q 400 4147 197 4147  L 197 4372  L 1147 4441  L 1147 428  Q 1147 294 1287 259  Q 1428 225 1644 225  L 1644 0  L 197 0  z "
                 transform="scale(0.015625)" />
              <path
                 id="Cmr10-70"
                 d="M 166 -1241  L 166 -1019  Q 384 -1019 525 -981  Q 666 -944 666 -813  L 666 2272  Q 666 2447 541 2490  Q 416 2534 166 2534  L 166 2759  L 1113 2828  L 1113 2431  Q 1288 2625 1520 2726  Q 1753 2828 2016 2828  Q 2394 2828 2697 2623  Q 3000 2419 3170 2086  Q 3341 1753 3341 1381  Q 3341 994 3152 659  Q 2963 325 2636 126  Q 2309 -72 1919 -72  Q 1453 -72 1131 306  L 1131 -813  Q 1131 -944 1273 -981  Q 1416 -1019 1631 -1019  L 1631 -1241  L 166 -1241  z M 1131 622  Q 1244 394 1444 245  Q 1644 97 1881 97  Q 2103 97 2273 215  Q 2444 334 2559 534  Q 2675 734 2729 954  Q 2784 1175 2784 1381  Q 2784 1638 2692 1936  Q 2600 2234 2411 2439  Q 2222 2644 1953 2644  Q 1694 2644 1476 2511  Q 1259 2378 1131 2150  L 1131 622  z "
                 transform="scale(0.015625)" />
              <path
                 id="Cmr10-65"
                 d="M 1594 -72  Q 1203 -72 876 133  Q 550 338 364 680  Q 178 1022 178 1403  Q 178 1778 348 2115  Q 519 2453 823 2661  Q 1128 2869 1503 2869  Q 1797 2869 2014 2770  Q 2231 2672 2372 2497  Q 2513 2322 2584 2084  Q 2656 1847 2656 1563  Q 2656 1478 2591 1478  L 738 1478  L 738 1409  Q 738 878 952 497  Q 1166 116 1650 116  Q 1847 116 2014 203  Q 2181 291 2304 447  Q 2428 603 2472 781  Q 2478 803 2495 820  Q 2513 838 2534 838  L 2591 838  Q 2656 838 2656 756  Q 2566 394 2266 161  Q 1966 -72 1594 -72  z M 744 1638  L 2203 1638  Q 2203 1878 2136 2125  Q 2069 2372 1912 2536  Q 1756 2700 1503 2700  Q 1141 2700 942 2361  Q 744 2022 744 1638  z "
                 transform="scale(0.015625)" />
            </defs>
            <use
               xlink:href="#Cmr10-46"
               id="use14740" />
            <use
               xlink:href="#Cmr10-69"
               transform="translate(65.185547 0)"
               id="use14742" />
            <use
               xlink:href="#Cmr10-6e"
               transform="translate(92.871094 0)"
               id="use14744" />
            <use
               xlink:href="#Cmr10-61"
               transform="translate(148.388672 0)"
               id="use14746" />
            <use
               xlink:href="#Cmr10-6c"
               transform="translate(198.388672 0)"
               id="use14748" />
            <use
               xlink:href="#Cmr10-20"
               transform="translate(226.074219 0)"
               id="use14750" />
            <use
               xlink:href="#Cmr10-70"
               transform="translate(259.375 0)"
               id="use14752" />
            <use
               xlink:href="#Cmr10-6c"
               transform="translate(314.892578 0)"
               id="use14754" />
            <use
               xlink:href="#Cmr10-61"
               transform="translate(342.578125 0)"
               id="use14756" />
            <use
               xlink:href="#Cmr10-6e"
               transform="translate(392.578125 0)"
               id="use14758" />
            <use
               xlink:href="#Cmr10-65"
               transform="translate(448.095703 0)"
               id="use14760" />
            <use
               xlink:href="#Cmr10-74"
               transform="translate(492.480469 0)"
               id="use14762" />
            <use
               xlink:href="#Cmr10-20"
               transform="translate(531.298828 0)"
               id="use14764" />
            <use
               xlink:href="#Cmr10-6d"
               transform="translate(564.599609 0)"
               id="use14766" />
            <use
               xlink:href="#Cmr10-61"
               transform="translate(647.900391 0)"
               id="use14768" />
            <use
               xlink:href="#Cmr10-73"
               transform="translate(697.900391 0)"
               id="use14770" />
            <use
               xlink:href="#Cmr10-73"
               transform="translate(737.304688 0)"
               id="use14772" />
            <use
               xlink:href="#Cmr10-20"
               transform="translate(776.708984 0)"
               id="use14774" />
            <use
               xlink:href="#Cmr10-2f"
               transform="translate(810.009766 0)"
               id="use14776" />
            <use
               xlink:href="#Cmr10-20"
               transform="translate(860.009766 0)"
               id="use14778" />
            <use
               xlink:href="#Cmmi10-4d"
               transform="translate(893.310547 0)"
               id="use14780" />
            <use
               xlink:href="#Cmsy10-a9"
               transform="translate(1002.623047 -17.00625)scale(0.7)"
               id="use14782" />
          </g>
        </g>
      </g>
      <g
         id="line2d_20">
        <path
           d="M -1 259.506475  L 353.341617 -1  "
           clip-path="url(#pd394c6fdaa)"
           style="fill:none;stroke-dasharray:2.8, 1.2;stroke-dashoffset:0;stroke:#404040;stroke-linejoin:miter;stroke-opacity:1"
           id="path14788" />
      </g>
      <g
         id="patch_3">
        <path
           d="M 57.585938 303.93  L 57.585938 41.445  "
           style="fill: none; stroke: #000000; stroke-width: 0.8; stroke-linejoin: miter; stroke-linecap: square"
           id="path14791" />
      </g>
      <g
         id="patch_4">
        <path
           d="M 414.61875 303.93  L 414.61875 41.445  "
           style="fill: none; stroke: #000000; stroke-width: 0.8; stroke-linejoin: miter; stroke-linecap: square"
           id="path14794" />
      </g>
      <g
         id="patch_5">
        <path
           d="M 57.585938 303.93  L 414.61875 303.93  "
           style="fill: none; stroke: #000000; stroke-width: 0.8; stroke-linejoin: miter; stroke-linecap: square"
           id="path14797" />
      </g>
      <g
         id="patch_6">
        <path
           d="M 57.585938 41.445  L 414.61875 41.445  "
           style="fill: none; stroke: #000000; stroke-width: 0.8; stroke-linejoin: miter; stroke-linecap: square"
           id="path14800" />
      </g>
    </g>
    <g
       id="axes_2">
      <g
         id="matplotlib.axis_3">
        <g
           id="xtick_6">
          <g
             id="line2d_21">
            <defs
               id="defs14805">
              <path
                 id="mb48d65080d"
                 d="M 0 0  L 0 3.5  "
                 style="stroke: #000000; stroke-width: 0.8" />
            </defs>
            <g
               id="g14809">
              <use
                 xlink:href="#mb48d65080d"
                 x="87.338672"
                 y="41.445"
                 style="stroke: #000000; stroke-width: 0.8"
                 id="use14807" />
            </g>
          </g>
          <g
             id="text_15">
            <!-- $\mathdefault{1.50}$ -->
            <g
               transform="translate(73.988672 33.536406)scale(0.15 -0.15)"
               id="g14823">
              <defs
                 id="defs14813">
                <path
                   id="Cmr10-2e"
                   d="M 538 353  Q 538 497 644 600  Q 750 703 891 703  Q 978 703 1062 656  Q 1147 609 1194 525  Q 1241 441 1241 353  Q 1241 213 1137 106  Q 1034 0 891 0  Q 750 0 644 106  Q 538 213 538 353  z "
                   transform="scale(0.015625)" />
              </defs>
              <use
                 xlink:href="#Cmr10-31"
                 transform="translate(0 0.390625)"
                 id="use14815" />
              <use
                 xlink:href="#Cmr10-2e"
                 transform="translate(50 0.390625)"
                 id="use14817" />
              <use
                 xlink:href="#Cmr10-35"
                 transform="translate(77.685547 0.390625)"
                 id="use14819" />
              <use
                 xlink:href="#Cmr10-30"
                 transform="translate(127.685547 0.390625)"
                 id="use14821" />
            </g>
          </g>
        </g>
        <g
           id="xtick_7">
          <g
             id="line2d_22">
            <g
               id="g14829">
              <use
                 xlink:href="#mb48d65080d"
                 x="161.720508"
                 y="41.445"
                 style="stroke: #000000; stroke-width: 0.8"
                 id="use14827" />
            </g>
          </g>
          <g
             id="text_16">
            <!-- $\mathdefault{2.25}$ -->
            <g
               transform="translate(148.370508 33.536406)scale(0.15 -0.15)"
               id="g14840">
              <use
                 xlink:href="#Cmr10-32"
                 transform="translate(0 0.390625)"
                 id="use14832" />
              <use
                 xlink:href="#Cmr10-2e"
                 transform="translate(50 0.390625)"
                 id="use14834" />
              <use
                 xlink:href="#Cmr10-32"
                 transform="translate(77.685547 0.390625)"
                 id="use14836" />
              <use
                 xlink:href="#Cmr10-35"
                 transform="translate(127.685547 0.390625)"
                 id="use14838" />
            </g>
          </g>
        </g>
        <g
           id="xtick_8">
          <g
             id="line2d_23">
            <g
               id="g14846">
              <use
                 xlink:href="#mb48d65080d"
                 x="236.102344"
                 y="41.445"
                 style="stroke: #000000; stroke-width: 0.8"
                 id="use14844" />
            </g>
          </g>
          <g
             id="text_17">
            <!-- $\mathdefault{3.00}$ -->
            <g
               transform="translate(222.752344 33.536406)scale(0.15 -0.15)"
               id="g14860">
              <defs
                 id="defs14850">
                <path
                   id="Cmr10-33"
                   d="M 609 494  Q 759 275 1012 169  Q 1266 63 1556 63  Q 1928 63 2084 380  Q 2241 697 2241 1100  Q 2241 1281 2208 1462  Q 2175 1644 2097 1800  Q 2019 1956 1883 2050  Q 1747 2144 1550 2144  L 1125 2144  Q 1069 2144 1069 2203  L 1069 2259  Q 1069 2309 1125 2309  L 1478 2338  Q 1703 2338 1851 2506  Q 2000 2675 2069 2917  Q 2138 3159 2138 3378  Q 2138 3684 1994 3881  Q 1850 4078 1556 4078  Q 1313 4078 1091 3986  Q 869 3894 738 3706  Q 750 3709 759 3711  Q 769 3713 781 3713  Q 925 3713 1022 3613  Q 1119 3513 1119 3372  Q 1119 3234 1022 3134  Q 925 3034 781 3034  Q 641 3034 541 3134  Q 441 3234 441 3372  Q 441 3647 606 3850  Q 772 4053 1033 4158  Q 1294 4263 1556 4263  Q 1750 4263 1965 4205  Q 2181 4147 2356 4039  Q 2531 3931 2642 3762  Q 2753 3594 2753 3378  Q 2753 3109 2633 2881  Q 2513 2653 2303 2487  Q 2094 2322 1844 2241  Q 2122 2188 2372 2031  Q 2622 1875 2773 1631  Q 2925 1388 2925 1106  Q 2925 753 2731 467  Q 2538 181 2222 20  Q 1906 -141 1556 -141  Q 1256 -141 954 -26  Q 653 88 461 316  Q 269 544 269 863  Q 269 1022 375 1128  Q 481 1234 641 1234  Q 744 1234 830 1186  Q 916 1138 964 1050  Q 1013 963 1013 863  Q 1013 706 903 600  Q 794 494 641 494  L 609 494  z "
                   transform="scale(0.015625)" />
              </defs>
              <use
                 xlink:href="#Cmr10-33"
                 transform="translate(0 0.390625)"
                 id="use14852" />
              <use
                 xlink:href="#Cmr10-2e"
                 transform="translate(50 0.390625)"
                 id="use14854" />
              <use
                 xlink:href="#Cmr10-30"
                 transform="translate(77.685547 0.390625)"
                 id="use14856" />
              <use
                 xlink:href="#Cmr10-30"
                 transform="translate(127.685547 0.390625)"
                 id="use14858" />
            </g>
          </g>
        </g>
        <g
           id="xtick_9">
          <g
             id="line2d_24">
            <g
               id="g14866">
              <use
                 xlink:href="#mb48d65080d"
                 x="310.48418"
                 y="41.445"
                 style="stroke: #000000; stroke-width: 0.8"
                 id="use14864" />
            </g>
          </g>
          <g
             id="text_18">
            <!-- $\mathdefault{3.75}$ -->
            <g
               transform="translate(297.13418 33.536406)scale(0.15 -0.15)"
               id="g14877">
              <use
                 xlink:href="#Cmr10-33"
                 transform="translate(0 0.421875)"
                 id="use14869" />
              <use
                 xlink:href="#Cmr10-2e"
                 transform="translate(50 0.421875)"
                 id="use14871" />
              <use
                 xlink:href="#Cmr10-37"
                 transform="translate(77.685547 0.421875)"
                 id="use14873" />
              <use
                 xlink:href="#Cmr10-35"
                 transform="translate(127.685547 0.421875)"
                 id="use14875" />
            </g>
          </g>
        </g>
        <g
           id="xtick_10">
          <g
             id="line2d_25">
            <g
               id="g14883">
              <use
                 xlink:href="#mb48d65080d"
                 x="384.866016"
                 y="41.445"
                 style="stroke: #000000; stroke-width: 0.8"
                 id="use14881" />
            </g>
          </g>
          <g
             id="text_19">
            <!-- $\mathdefault{4.50}$ -->
            <g
               transform="translate(371.516016 33.536406)scale(0.15 -0.15)"
               id="g14894">
              <use
                 xlink:href="#Cmr10-34"
                 transform="translate(0 0.390625)"
                 id="use14886" />
              <use
                 xlink:href="#Cmr10-2e"
                 transform="translate(50 0.390625)"
                 id="use14888" />
              <use
                 xlink:href="#Cmr10-35"
                 transform="translate(77.685547 0.390625)"
                 id="use14890" />
              <use
                 xlink:href="#Cmr10-30"
                 transform="translate(127.685547 0.390625)"
                 id="use14892" />
            </g>
          </g>
        </g>
        <g
           id="text_20">
          <!-- Dust surface density / g cm$^{-2}$ -->
          <g
             transform="translate(136.952344 18.127813)scale(0.15 -0.15)"
             id="g14965">
            <defs
               id="defs14905">
              <path
                 id="Cmr10-72"
                 d="M 166 0  L 166 225  Q 384 225 525 259  Q 666 294 666 428  L 666 2175  Q 666 2347 614 2423  Q 563 2500 466 2517  Q 369 2534 166 2534  L 166 2759  L 1081 2828  L 1081 2203  Q 1184 2481 1375 2654  Q 1566 2828 1838 2828  Q 2028 2828 2178 2715  Q 2328 2603 2328 2419  Q 2328 2303 2245 2217  Q 2163 2131 2041 2131  Q 1922 2131 1837 2215  Q 1753 2300 1753 2419  Q 1753 2591 1875 2663  L 1838 2663  Q 1578 2663 1414 2475  Q 1250 2288 1181 2009  Q 1113 1731 1113 1478  L 1113 428  Q 1113 225 1734 225  L 1734 0  L 166 0  z "
                 transform="scale(0.015625)" />
              <path
                 id="Cmr10-66"
                 d="M 206 0  L 206 225  Q 422 225 562 259  Q 703 294 703 428  L 703 2534  L 213 2534  L 213 2759  L 703 2759  L 703 3525  Q 703 3731 789 3911  Q 875 4091 1020 4225  Q 1166 4359 1355 4436  Q 1544 4513 1747 4513  Q 1963 4513 2136 4384  Q 2309 4256 2309 4044  Q 2309 3922 2226 3839  Q 2144 3756 2022 3756  Q 1900 3756 1814 3839  Q 1728 3922 1728 4044  Q 1728 4244 1900 4313  Q 1797 4347 1716 4347  Q 1528 4347 1395 4214  Q 1263 4081 1197 3890  Q 1131 3700 1131 3513  L 1131 2759  L 1869 2759  L 1869 2534  L 1153 2534  L 1153 428  Q 1153 297 1340 261  Q 1528 225 1772 225  L 1772 0  L 206 0  z "
                 transform="scale(0.015625)" />
              <path
                 id="Cmr10-63"
                 d="M 1594 -72  Q 1206 -72 890 129  Q 575 331 394 667  Q 213 1003 213 1381  Q 213 1759 392 2106  Q 572 2453 889 2661  Q 1206 2869 1594 2869  Q 1969 2869 2276 2722  Q 2584 2575 2584 2241  Q 2584 2116 2495 2023  Q 2406 1931 2278 1931  Q 2150 1931 2061 2023  Q 1972 2116 1972 2241  Q 1972 2353 2044 2436  Q 2116 2519 2222 2541  Q 2000 2681 1600 2681  Q 1294 2681 1106 2478  Q 919 2275 844 1975  Q 769 1675 769 1381  Q 769 1072 861 783  Q 953 494 1158 305  Q 1363 116 1672 116  Q 1975 116 2187 302  Q 2400 488 2478 788  Q 2478 825 2528 825  L 2606 825  Q 2625 825 2640 808  Q 2656 791 2656 769  L 2656 750  Q 2559 372 2271 150  Q 1984 -72 1594 -72  z "
                 transform="scale(0.015625)" />
              <path
                 id="Cmr10-64"
                 d="M 1563 -72  Q 1184 -72 871 133  Q 559 338 386 672  Q 213 1006 213 1381  Q 213 1769 402 2101  Q 591 2434 916 2631  Q 1241 2828 1631 2828  Q 1866 2828 2075 2729  Q 2284 2631 2438 2456  L 2438 3788  Q 2438 3959 2386 4036  Q 2334 4113 2239 4130  Q 2144 4147 1941 4147  L 1941 4372  L 2888 4441  L 2888 581  Q 2888 413 2939 336  Q 2991 259 3086 242  Q 3181 225 3384 225  L 3384 0  L 2419 -72  L 2419 331  Q 2253 141 2025 34  Q 1797 -72 1563 -72  z M 909 556  Q 1019 347 1201 222  Q 1384 97 1600 97  Q 1866 97 2087 250  Q 2309 403 2419 647  L 2419 2181  Q 2344 2322 2230 2433  Q 2116 2544 1973 2603  Q 1831 2663 1672 2663  Q 1338 2663 1134 2473  Q 931 2284 850 1990  Q 769 1697 769 1375  Q 769 1119 795 928  Q 822 738 909 556  z "
                 transform="scale(0.015625)" />
              <path
                 id="Cmr10-79"
                 d="M 441 -1050  Q 563 -1147 709 -1147  Q 1113 -1147 1369 -538  L 1588 0  L 628 2350  Q 569 2469 447 2501  Q 325 2534 122 2534  L 122 2759  L 1466 2759  L 1466 2534  Q 1113 2534 1113 2381  Q 1113 2356 1119 2344  L 1831 594  L 2472 2169  Q 2491 2219 2491 2278  Q 2491 2356 2448 2414  Q 2406 2472 2339 2503  Q 2272 2534 2188 2534  L 2188 2759  L 3250 2759  L 3250 2534  Q 3053 2534 2904 2443  Q 2756 2353 2675 2175  L 1569 -538  Q 1481 -744 1364 -917  Q 1247 -1091 1078 -1202  Q 909 -1313 709 -1313  Q 475 -1313 298 -1158  Q 122 -1003 122 -775  Q 122 -656 203 -575  Q 284 -494 403 -494  Q 484 -494 548 -530  Q 613 -566 648 -628  Q 684 -691 684 -775  Q 684 -878 615 -959  Q 547 -1041 441 -1050  z "
                 transform="scale(0.015625)" />
              <path
                 id="Cmr10-67"
                 d="M 178 -500  Q 178 -272 343 -101  Q 509 69 738 141  Q 609 238 542 384  Q 475 531 475 697  Q 475 997 666 1228  Q 372 1516 372 1888  Q 372 2088 458 2263  Q 544 2438 697 2566  Q 850 2694 1037 2761  Q 1225 2828 1422 2828  Q 1803 2828 2106 2606  Q 2238 2747 2417 2823  Q 2597 2900 2791 2900  Q 2928 2900 3015 2801  Q 3103 2703 3103 2566  Q 3103 2488 3043 2428  Q 2984 2369 2906 2369  Q 2825 2369 2765 2428  Q 2706 2488 2706 2566  Q 2706 2684 2784 2731  Q 2453 2731 2216 2503  Q 2331 2388 2401 2220  Q 2472 2053 2472 1888  Q 2472 1616 2322 1398  Q 2172 1181 1926 1061  Q 1681 941 1422 941  Q 1072 941 781 1131  Q 691 1006 691 850  Q 691 681 802 554  Q 913 428 1081 428  L 1606 428  Q 1988 428 2294 359  Q 2600 291 2808 84  Q 3016 -122 3016 -500  Q 3016 -781 2778 -967  Q 2541 -1153 2211 -1236  Q 1881 -1319 1600 -1319  Q 1316 -1319 984 -1236  Q 653 -1153 415 -967  Q 178 -781 178 -500  z M 538 -500  Q 538 -716 713 -861  Q 888 -1006 1134 -1076  Q 1381 -1147 1600 -1147  Q 1816 -1147 2062 -1076  Q 2309 -1006 2482 -861  Q 2656 -716 2656 -500  Q 2656 -166 2350 -67  Q 2044 31 1606 31  L 1081 31  Q 934 31 811 -39  Q 688 -109 613 -236  Q 538 -363 538 -500  z M 1422 1113  Q 1966 1113 1966 1888  Q 1966 2222 1850 2439  Q 1734 2656 1422 2656  Q 1109 2656 993 2439  Q 878 2222 878 1888  Q 878 1675 922 1503  Q 966 1331 1084 1222  Q 1203 1113 1422 1113  z "
                 transform="scale(0.015625)" />
              <path
                 id="Cmsy10-a1"
                 d="M 653 1472  Q 600 1472 565 1512  Q 531 1553 531 1600  Q 531 1647 565 1687  Q 600 1728 653 1728  L 4325 1728  Q 4375 1728 4408 1687  Q 4441 1647 4441 1600  Q 4441 1553 4408 1512  Q 4375 1472 4325 1472  L 653 1472  z "
                 transform="scale(0.015625)" />
            </defs>
            <use
               xlink:href="#Cmr10-44"
               transform="translate(0 0.109375)"
               id="use14907" />
            <use
               xlink:href="#Cmr10-75"
               transform="translate(76.318359 0.109375)"
               id="use14909" />
            <use
               xlink:href="#Cmr10-73"
               transform="translate(131.835938 0.109375)"
               id="use14911" />
            <use
               xlink:href="#Cmr10-74"
               transform="translate(171.240234 0.109375)"
               id="use14913" />
            <use
               xlink:href="#Cmr10-20"
               transform="translate(210.058594 0.109375)"
               id="use14915" />
            <use
               xlink:href="#Cmr10-73"
               transform="translate(243.359375 0.109375)"
               id="use14917" />
            <use
               xlink:href="#Cmr10-75"
               transform="translate(282.763672 0.109375)"
               id="use14919" />
            <use
               xlink:href="#Cmr10-72"
               transform="translate(338.28125 0.109375)"
               id="use14921" />
            <use
               xlink:href="#Cmr10-66"
               transform="translate(377.392578 0.109375)"
               id="use14923" />
            <use
               xlink:href="#Cmr10-61"
               transform="translate(407.910156 0.109375)"
               id="use14925" />
            <use
               xlink:href="#Cmr10-63"
               transform="translate(457.910156 0.109375)"
               id="use14927" />
            <use
               xlink:href="#Cmr10-65"
               transform="translate(502.294922 0.109375)"
               id="use14929" />
            <use
               xlink:href="#Cmr10-20"
               transform="translate(546.679688 0.109375)"
               id="use14931" />
            <use
               xlink:href="#Cmr10-64"
               transform="translate(579.980469 0.109375)"
               id="use14933" />
            <use
               xlink:href="#Cmr10-65"
               transform="translate(635.498047 0.109375)"
               id="use14935" />
            <use
               xlink:href="#Cmr10-6e"
               transform="translate(679.882812 0.109375)"
               id="use14937" />
            <use
               xlink:href="#Cmr10-73"
               transform="translate(735.400391 0.109375)"
               id="use14939" />
            <use
               xlink:href="#Cmr10-69"
               transform="translate(774.804688 0.109375)"
               id="use14941" />
            <use
               xlink:href="#Cmr10-74"
               transform="translate(802.490234 0.109375)"
               id="use14943" />
            <use
               xlink:href="#Cmr10-79"
               transform="translate(841.308594 0.109375)"
               id="use14945" />
            <use
               xlink:href="#Cmr10-20"
               transform="translate(893.994141 0.109375)"
               id="use14947" />
            <use
               xlink:href="#Cmr10-2f"
               transform="translate(927.294922 0.109375)"
               id="use14949" />
            <use
               xlink:href="#Cmr10-20"
               transform="translate(977.294922 0.109375)"
               id="use14951" />
            <use
               xlink:href="#Cmr10-67"
               transform="translate(1010.595703 0.109375)"
               id="use14953" />
            <use
               xlink:href="#Cmr10-20"
               transform="translate(1060.595703 0.109375)"
               id="use14955" />
            <use
               xlink:href="#Cmr10-63"
               transform="translate(1093.896484 0.109375)"
               id="use14957" />
            <use
               xlink:href="#Cmr10-6d"
               transform="translate(1138.28125 0.109375)"
               id="use14959" />
            <use
               xlink:href="#Cmsy10-a1"
               transform="translate(1226.046172 38.373438)scale(0.7)"
               id="use14961" />
            <use
               xlink:href="#Cmr10-32"
               transform="translate(1280.426055 38.373438)scale(0.7)"
               id="use14963" />
          </g>
        </g>
      </g>
      <g
         id="patch_7">
        <path
           d="M 57.585938 303.93  L 57.585938 41.445  "
           style="fill: none; stroke: #000000; stroke-width: 0.8; stroke-linejoin: miter; stroke-linecap: square"
           id="path14969" />
      </g>
      <g
         id="patch_8">
        <path
           d="M 414.61875 303.93  L 414.61875 41.445  "
           style="fill: none; stroke: #000000; stroke-width: 0.8; stroke-linejoin: miter; stroke-linecap: square"
           id="path14972" />
      </g>
      <g
         id="patch_9">
        <path
           d="M 57.585938 303.93  L 414.61875 303.93  "
           style="fill: none; stroke: #000000; stroke-width: 0.8; stroke-linejoin: miter; stroke-linecap: square"
           id="path14975" />
      </g>
      <g
         id="patch_10">
        <path
           d="M 57.585938 41.445  L 414.61875 41.445  "
           style="fill: none; stroke: #000000; stroke-width: 0.8; stroke-linejoin: miter; stroke-linecap: square"
           id="path14978" />
      </g>
      <g
         id="legend_1">
        <g
           id="text_21">
          <!-- Aspect ratio -->
          <g
             transform="translate(76.430859 65.681719)scale(0.15 -0.15)"
             id="g15009">
            <defs
               id="defs14983">
              <path
                 id="Cmr10-41"
                 d="M 206 0  L 206 225  Q 778 225 909 603  L 2253 4513  Q 2272 4581 2356 4581  L 2438 4581  Q 2522 4581 2541 4513  L 3944 428  Q 4003 294 4170 259  Q 4338 225 4588 225  L 4588 0  L 2803 0  L 2803 225  Q 3334 225 3334 397  L 3334 428  L 2988 1428  L 1434 1428  L 1147 603  Q 1141 581 1141 538  Q 1141 378 1292 301  Q 1444 225 1619 225  L 1619 0  L 206 0  z M 1509 1650  L 2913 1650  L 2209 3694  L 1509 1650  z "
                 transform="scale(0.015625)" />
              <path
                 id="Cmr10-6f"
                 d="M 1600 -72  Q 1216 -72 887 123  Q 559 319 368 647  Q 178 975 178 1363  Q 178 1656 283 1928  Q 388 2200 583 2414  Q 778 2628 1037 2748  Q 1297 2869 1600 2869  Q 1994 2869 2317 2661  Q 2641 2453 2828 2104  Q 3016 1756 3016 1363  Q 3016 978 2825 648  Q 2634 319 2307 123  Q 1981 -72 1600 -72  z M 1600 116  Q 2113 116 2284 487  Q 2456 859 2456 1434  Q 2456 1756 2422 1967  Q 2388 2178 2272 2350  Q 2200 2456 2089 2536  Q 1978 2616 1854 2658  Q 1731 2700 1600 2700  Q 1400 2700 1220 2609  Q 1041 2519 922 2350  Q 803 2169 770 1951  Q 738 1734 738 1434  Q 738 1075 800 789  Q 863 503 1052 309  Q 1241 116 1600 116  z "
                 transform="scale(0.015625)" />
            </defs>
            <use
               xlink:href="#Cmr10-41"
               id="use14985" />
            <use
               xlink:href="#Cmr10-73"
               x="75"
               id="use14987" />
            <use
               xlink:href="#Cmr10-70"
               x="114.404297"
               id="use14989" />
            <use
               xlink:href="#Cmr10-65"
               x="169.921875"
               id="use14991" />
            <use
               xlink:href="#Cmr10-63"
               x="214.306641"
               id="use14993" />
            <use
               xlink:href="#Cmr10-74"
               x="258.691406"
               id="use14995" />
            <use
               xlink:href="#Cmr10-20"
               x="297.509766"
               id="use14997" />
            <use
               xlink:href="#Cmr10-72"
               x="330.810547"
               id="use14999" />
            <use
               xlink:href="#Cmr10-61"
               x="369.921875"
               id="use15001" />
            <use
               xlink:href="#Cmr10-74"
               x="419.921875"
               id="use15003" />
            <use
               xlink:href="#Cmr10-69"
               x="458.740234"
               id="use15005" />
            <use
               xlink:href="#Cmr10-6f"
               x="486.425781"
               id="use15007" />
          </g>
        </g>
        <g
           id="PathCollection_7">
          <path
             d="M 78.59987 84.88888  L 83.072005 84.88888  L 83.072005 80.416745  L 78.59987 80.416745  L 78.59987 84.88888  z "
             style="fill: none; stroke: #0073bd"
             id="path15012" />
        </g>
        <g
           id="PathCollection_8">
          <g
             id="g15017">
            <use
               xlink:href="#mb515984fa1"
               x="106.335938"
               y="82.652812"
               style="fill: #0073bd; stroke: #0073bd"
               id="use15015" />
          </g>
        </g>
        <g
           id="text_22">
          <!-- 0.035 -->
          <g
             transform="translate(128.085938 86.590312)scale(0.15 -0.15)"
             id="g15030">
            <use
               xlink:href="#Cmr10-30"
               id="use15020" />
            <use
               xlink:href="#Cmr10-2e"
               x="50"
               id="use15022" />
            <use
               xlink:href="#Cmr10-30"
               x="77.685547"
               id="use15024" />
            <use
               xlink:href="#Cmr10-33"
               x="127.685547"
               id="use15026" />
            <use
               xlink:href="#Cmr10-35"
               x="177.685547"
               id="use15028" />
          </g>
        </g>
        <g
           id="PathCollection_9">
          <path
             d="M 78.59987 105.797474  L 83.072005 105.797474  L 83.072005 101.325338  L 78.59987 101.325338  L 78.59987 105.797474  z "
             style="fill: none; stroke: #d85319"
             id="path15033" />
        </g>
        <g
           id="PathCollection_10">
          <g
             id="g15038">
            <use
               xlink:href="#m90450de01b"
               x="106.335938"
               y="103.561406"
               style="fill: #d85319; stroke: #d85319"
               id="use15036" />
          </g>
        </g>
        <g
           id="text_23">
          <!-- 0.05 -->
          <g
             transform="translate(128.085938 107.498906)scale(0.15 -0.15)"
             id="g15049">
            <use
               xlink:href="#Cmr10-30"
               id="use15041" />
            <use
               xlink:href="#Cmr10-2e"
               x="50"
               id="use15043" />
            <use
               xlink:href="#Cmr10-30"
               x="77.685547"
               id="use15045" />
            <use
               xlink:href="#Cmr10-35"
               x="127.685547"
               id="use15047" />
          </g>
        </g>
        <g
           id="PathCollection_11">
          <path
             d="M 78.59987 126.706068  L 83.072005 126.706068  L 83.072005 122.233932  L 78.59987 122.233932  L 78.59987 126.706068  z "
             style="fill: none; stroke: #edb120"
             id="path15052" />
        </g>
        <g
           id="PathCollection_12">
          <g
             id="g15057">
            <use
               xlink:href="#m4251d771b9"
               x="106.335938"
               y="124.47"
               style="fill: #edb120; stroke: #edb120"
               id="use15055" />
          </g>
        </g>
        <g
           id="text_24">
          <!-- 0.1 -->
          <g
             transform="translate(128.085938 128.4075)scale(0.15 -0.15)"
             id="g15066">
            <use
               xlink:href="#Cmr10-30"
               id="use15060" />
            <use
               xlink:href="#Cmr10-2e"
               x="50"
               id="use15062" />
            <use
               xlink:href="#Cmr10-31"
               x="77.685547"
               id="use15064" />
          </g>
        </g>
      </g>
    </g>
  </g>
  <defs
     id="defs15075">
    <clipPath
       id="pd394c6fdaa">
      <rect
         x="57.585938"
         y="41.445"
         width="357.032813"
         height="262.485"
         id="rect15072" />
    </clipPath>
  </defs>
</svg>
